<?xml version="1.0" encoding="ISO-8859-1"?>
<!DOCTYPE svg PUBLIC "-//W3C//DTD SVG 1.0//EN" "http://www.w3.org/TR/2001/REC-SVG-20010904/DTD/svg10.dtd">
<!-- generated by Grace-5.1.25 -->
<svg xml:space="preserve" width="11.1111in" height="8.3333in" viewBox="0.0000 0.0000 800.0000 600.0000">
 <g transform="translate(0,600.0000) scale(1,-1)">
 <desc></desc>
  <g style="fill:#000000; fill-rule:nonzero">
   <path  d="M97.2250,90.0000L97.2250,104.3722L100.2250,104.3722L100.2250,90.0000z"/>
   <path  d="M101.0367,90.0000L101.0367,90.0000L104.0367,90.0000L104.0367,90.0000z"/>
   <path  d="M104.8484,90.0000L104.8484,90.0000L107.8484,90.0000L107.8484,90.0000z"/>
   <path  d="M108.6601,90.0000L108.6601,90.0000L111.6601,90.0000L111.6601,90.0000z"/>
   <path  d="M112.4718,90.0000L112.4718,90.0000L115.4718,90.0000L115.4718,90.0000z"/>
   <path  d="M116.2835,90.0000L116.2835,99.5815L119.2835,99.5815L119.2835,90.0000z"/>
   <path  d="M120.0952,90.0000L120.0952,90.0000L123.0952,90.0000L123.0952,90.0000z"/>
   <path  d="M123.9069,90.0000L123.9069,90.0000L126.9069,90.0000L126.9069,90.0000z"/>
   <path  d="M127.7186,90.0000L127.7186,90.0000L130.7186,90.0000L130.7186,90.0000z"/>
   <path  d="M131.5303,90.0000L131.5303,94.7907L134.5303,94.7907L134.5303,90.0000z"/>
   <path  d="M135.3420,90.0000L135.3420,94.7907L138.3420,94.7907L138.3420,90.0000z"/>
   <path  d="M139.1538,90.0000L139.1538,90.0000L142.1538,90.0000L142.1538,90.0000z"/>
   <path  d="M142.9655,90.0000L142.9655,99.5815L145.9655,99.5815L145.9655,90.0000z"/>
   <path  d="M146.7772,90.0000L146.7772,90.0000L149.7772,90.0000L149.7772,90.0000z"/>
   <path  d="M150.5889,90.0000L150.5889,104.3722L153.5889,104.3722L153.5889,90.0000z"/>
   <path  d="M154.4006,90.0000L154.4006,90.0000L157.4006,90.0000L157.4006,90.0000z"/>
   <path  d="M158.2123,90.0000L158.2123,104.3722L161.2123,104.3722L161.2123,90.0000z"/>
   <path  d="M162.0240,90.0000L162.0240,99.5815L165.0240,99.5815L165.0240,90.0000z"/>
   <path  d="M165.8357,90.0000L165.8357,147.4888L168.8357,147.4888L168.8357,90.0000z"/>
   <path  d="M169.6474,90.0000L169.6474,104.3722L172.6474,104.3722L172.6474,90.0000z"/>
   <path  d="M173.4591,90.0000L173.4591,123.5351L176.4591,123.5351L176.4591,90.0000z"/>
   <path  d="M177.2709,90.0000L177.2709,118.7444L180.2709,118.7444L180.2709,90.0000z"/>
   <path  d="M181.0826,90.0000L181.0826,109.1629L184.0826,109.1629L184.0826,90.0000z"/>
   <path  d="M184.8943,90.0000L184.8943,104.3722L187.8943,104.3722L187.8943,90.0000z"/>
   <path  d="M188.7060,90.0000L188.7060,128.3258L191.7060,128.3258L191.7060,90.0000z"/>
   <path  d="M192.5177,90.0000L192.5177,133.1166L195.5177,133.1166L195.5177,90.0000z"/>
   <path  d="M196.3294,90.0000L196.3294,109.1629L199.3294,109.1629L199.3294,90.0000z"/>
   <path  d="M200.1411,90.0000L200.1411,137.9073L203.1411,137.9073L203.1411,90.0000z"/>
   <path  d="M203.9528,90.0000L203.9528,171.4424L206.9528,171.4424L206.9528,90.0000z"/>
   <path  d="M207.7645,90.0000L207.7645,152.2795L210.7645,152.2795L210.7645,90.0000z"/>
   <path  d="M211.5762,90.0000L211.5762,233.7219L214.5762,233.7219L214.5762,90.0000z"/>
   <path  d="M215.3880,90.0000L215.3880,204.9775L218.3880,204.9775L218.3880,90.0000z"/>
   <path  d="M219.1997,90.0000L219.1997,147.4888L222.1997,147.4888L222.1997,90.0000z"/>
   <path  d="M223.0114,90.0000L223.0114,204.9775L226.0114,204.9775L226.0114,90.0000z"/>
   <path  d="M226.8231,90.0000L226.8231,195.3960L229.8231,195.3960L229.8231,90.0000z"/>
   <path  d="M230.6348,90.0000L230.6348,233.7219L233.6348,233.7219L233.6348,90.0000z"/>
   <path  d="M234.4465,90.0000L234.4465,200.1868L237.4465,200.1868L237.4465,90.0000z"/>
   <path  d="M238.2582,90.0000L238.2582,209.7682L241.2582,209.7682L241.2582,90.0000z"/>
   <path  d="M242.0699,90.0000L242.0699,219.3497L245.0699,219.3497L245.0699,90.0000z"/>
   <path  d="M245.8816,90.0000L245.8816,209.7682L248.8816,209.7682L248.8816,90.0000z"/>
   <path  d="M249.6933,90.0000L249.6933,224.1404L252.6933,224.1404L252.6933,90.0000z"/>
   <path  d="M253.5051,90.0000L253.5051,243.3033L256.5051,243.3033L256.5051,90.0000z"/>
   <path  d="M257.3168,90.0000L257.3168,228.9311L260.3168,228.9311L260.3168,90.0000z"/>
   <path  d="M261.1285,90.0000L261.1285,233.7219L264.1285,233.7219L264.1285,90.0000z"/>
   <path  d="M264.9402,90.0000L264.9402,200.1868L267.9402,200.1868L267.9402,90.0000z"/>
   <path  d="M268.7519,90.0000L268.7519,200.1868L271.7519,200.1868L271.7519,90.0000z"/>
   <path  d="M272.5636,90.0000L272.5636,190.6053L275.5636,190.6053L275.5636,90.0000z"/>
   <path  d="M276.3753,90.0000L276.3753,233.7219L279.3753,233.7219L279.3753,90.0000z"/>
   <path  d="M280.1870,90.0000L280.1870,238.5126L283.1870,238.5126L283.1870,90.0000z"/>
   <path  d="M283.9987,90.0000L283.9987,228.9311L286.9987,228.9311L286.9987,90.0000z"/>
   <path  d="M287.8104,90.0000L287.8104,257.6755L290.8104,257.6755L290.8104,90.0000z"/>
   <path  d="M291.6221,90.0000L291.6221,209.7682L294.6221,209.7682L294.6221,90.0000z"/>
   <path  d="M295.4339,90.0000L295.4339,214.5590L298.4339,214.5590L298.4339,90.0000z"/>
   <path  d="M299.2456,90.0000L299.2456,214.5590L302.2456,214.5590L302.2456,90.0000z"/>
   <path  d="M303.0573,90.0000L303.0573,204.9775L306.0573,204.9775L306.0573,90.0000z"/>
   <path  d="M306.8690,90.0000L306.8690,161.8609L309.8690,161.8609L309.8690,90.0000z"/>
   <path  d="M310.6807,90.0000L310.6807,181.0239L313.6807,181.0239L313.6807,90.0000z"/>
   <path  d="M314.4924,90.0000L314.4924,171.4424L317.4924,171.4424L317.4924,90.0000z"/>
   <path  d="M318.3041,90.0000L318.3041,161.8609L321.3041,161.8609L321.3041,90.0000z"/>
   <path  d="M322.1158,90.0000L322.1158,171.4424L325.1158,171.4424L325.1158,90.0000z"/>
   <path  d="M325.9275,90.0000L325.9275,171.4424L328.9275,171.4424L328.9275,90.0000z"/>
   <path  d="M329.7392,90.0000L329.7392,118.7444L332.7392,118.7444L332.7392,90.0000z"/>
   <path  d="M333.5510,90.0000L333.5510,147.4888L336.5510,147.4888L336.5510,90.0000z"/>
   <path  d="M337.3627,90.0000L337.3627,137.9073L340.3627,137.9073L340.3627,90.0000z"/>
   <path  d="M341.1744,90.0000L341.1744,137.9073L344.1744,137.9073L344.1744,90.0000z"/>
   <path  d="M344.9861,90.0000L344.9861,137.9073L347.9861,137.9073L347.9861,90.0000z"/>
   <path  d="M348.7978,90.0000L348.7978,137.9073L351.7978,137.9073L351.7978,90.0000z"/>
   <path  d="M352.6095,90.0000L352.6095,142.6980L355.6095,142.6980L355.6095,90.0000z"/>
   <path  d="M356.4212,90.0000L356.4212,133.1166L359.4212,133.1166L359.4212,90.0000z"/>
   <path  d="M360.2329,90.0000L360.2329,118.7444L363.2329,118.7444L363.2329,90.0000z"/>
   <path  d="M364.0446,90.0000L364.0446,109.1629L367.0446,109.1629L367.0446,90.0000z"/>
   <path  d="M367.8563,90.0000L367.8563,128.3258L370.8563,128.3258L370.8563,90.0000z"/>
   <path  d="M371.6681,90.0000L371.6681,104.3722L374.6681,104.3722L374.6681,90.0000z"/>
   <path  d="M375.4798,90.0000L375.4798,104.3722L378.4798,104.3722L378.4798,90.0000z"/>
   <path  d="M379.2915,90.0000L379.2915,99.5815L382.2915,99.5815L382.2915,90.0000z"/>
   <path  d="M383.1032,90.0000L383.1032,99.5815L386.1032,99.5815L386.1032,90.0000z"/>
   <path  d="M386.9149,90.0000L386.9149,90.0000L389.9149,90.0000L389.9149,90.0000z"/>
   <path  d="M390.7266,90.0000L390.7266,99.5815L393.7266,99.5815L393.7266,90.0000z"/>
   <path  d="M394.5383,90.0000L394.5383,104.3722L397.5383,104.3722L397.5383,90.0000z"/>
   <path  d="M398.3500,90.0000L398.3500,94.7907L401.3500,94.7907L401.3500,90.0000z"/>
   <path  d="M402.1617,90.0000L402.1617,94.7907L405.1617,94.7907L405.1617,90.0000z"/>
   <path  d="M405.9734,90.0000L405.9734,94.7907L408.9734,94.7907L408.9734,90.0000z"/>
   <path  d="M409.7852,90.0000L409.7852,109.1629L412.7852,109.1629L412.7852,90.0000z"/>
   <path  d="M413.5969,90.0000L413.5969,94.7907L416.5969,94.7907L416.5969,90.0000z"/>
   <path  d="M417.4086,90.0000L417.4086,94.7907L420.4086,94.7907L420.4086,90.0000z"/>
   <path  d="M421.2203,90.0000L421.2203,99.5815L424.2203,99.5815L424.2203,90.0000z"/>
   <path  d="M425.0320,90.0000L425.0320,94.7907L428.0320,94.7907L428.0320,90.0000z"/>
   <path  d="M428.8437,90.0000L428.8437,99.5815L431.8437,99.5815L431.8437,90.0000z"/>
   <path  d="M432.6554,90.0000L432.6554,94.7907L435.6554,94.7907L435.6554,90.0000z"/>
   <path  d="M436.4671,90.0000L436.4671,94.7907L439.4671,94.7907L439.4671,90.0000z"/>
   <path  d="M440.2788,90.0000L440.2788,94.7907L443.2788,94.7907L443.2788,90.0000z"/>
   <path  d="M444.0905,90.0000L444.0905,90.0000L447.0905,90.0000L447.0905,90.0000z"/>
   <path  d="M447.9023,90.0000L447.9023,99.5815L450.9023,99.5815L450.9023,90.0000z"/>
   <path  d="M451.7140,90.0000L451.7140,94.7907L454.7140,94.7907L454.7140,90.0000z"/>
   <path  d="M455.5257,90.0000L455.5257,94.7907L458.5257,94.7907L458.5257,90.0000z"/>
   <path  d="M459.3374,90.0000L459.3374,90.0000L462.3374,90.0000L462.3374,90.0000z"/>
   <path  d="M463.1491,90.0000L463.1491,90.0000L466.1491,90.0000L466.1491,90.0000z"/>
   <path  d="M466.9608,90.0000L466.9608,90.0000L469.9608,90.0000L469.9608,90.0000z"/>
   <path  d="M470.7725,90.0000L470.7725,90.0000L473.7725,90.0000L473.7725,90.0000z"/>
   <path  d="M474.5842,90.0000L474.5842,94.7907L477.5842,94.7907L477.5842,90.0000z"/>
  </g>
  <g style="fill:none; stroke:#000000; stroke-width:  0.9000; stroke-linecap:butt; stroke-linejoin:miter; stroke-dasharray:none">
   <path d="M97.2250,90.0000L97.2250,104.3722L100.2250,104.3722L100.2250,90.0000z"/>
   <path d="M101.0367,90.0000L101.0367,90.0000L104.0367,90.0000L104.0367,90.0000z"/>
   <path d="M104.8484,90.0000L104.8484,90.0000L107.8484,90.0000L107.8484,90.0000z"/>
   <path d="M108.6601,90.0000L108.6601,90.0000L111.6601,90.0000L111.6601,90.0000z"/>
   <path d="M112.4718,90.0000L112.4718,90.0000L115.4718,90.0000L115.4718,90.0000z"/>
   <path d="M116.2835,90.0000L116.2835,99.5815L119.2835,99.5815L119.2835,90.0000z"/>
   <path d="M120.0952,90.0000L120.0952,90.0000L123.0952,90.0000L123.0952,90.0000z"/>
   <path d="M123.9069,90.0000L123.9069,90.0000L126.9069,90.0000L126.9069,90.0000z"/>
   <path d="M127.7186,90.0000L127.7186,90.0000L130.7186,90.0000L130.7186,90.0000z"/>
   <path d="M131.5303,90.0000L131.5303,94.7907L134.5303,94.7907L134.5303,90.0000z"/>
   <path d="M135.3420,90.0000L135.3420,94.7907L138.3420,94.7907L138.3420,90.0000z"/>
   <path d="M139.1538,90.0000L139.1538,90.0000L142.1538,90.0000L142.1538,90.0000z"/>
   <path d="M142.9655,90.0000L142.9655,99.5815L145.9655,99.5815L145.9655,90.0000z"/>
   <path d="M146.7772,90.0000L146.7772,90.0000L149.7772,90.0000L149.7772,90.0000z"/>
   <path d="M150.5889,90.0000L150.5889,104.3722L153.5889,104.3722L153.5889,90.0000z"/>
   <path d="M154.4006,90.0000L154.4006,90.0000L157.4006,90.0000L157.4006,90.0000z"/>
   <path d="M158.2123,90.0000L158.2123,104.3722L161.2123,104.3722L161.2123,90.0000z"/>
   <path d="M162.0240,90.0000L162.0240,99.5815L165.0240,99.5815L165.0240,90.0000z"/>
   <path d="M165.8357,90.0000L165.8357,147.4888L168.8357,147.4888L168.8357,90.0000z"/>
   <path d="M169.6474,90.0000L169.6474,104.3722L172.6474,104.3722L172.6474,90.0000z"/>
   <path d="M173.4591,90.0000L173.4591,123.5351L176.4591,123.5351L176.4591,90.0000z"/>
   <path d="M177.2709,90.0000L177.2709,118.7444L180.2709,118.7444L180.2709,90.0000z"/>
   <path d="M181.0826,90.0000L181.0826,109.1629L184.0826,109.1629L184.0826,90.0000z"/>
   <path d="M184.8943,90.0000L184.8943,104.3722L187.8943,104.3722L187.8943,90.0000z"/>
   <path d="M188.7060,90.0000L188.7060,128.3258L191.7060,128.3258L191.7060,90.0000z"/>
   <path d="M192.5177,90.0000L192.5177,133.1166L195.5177,133.1166L195.5177,90.0000z"/>
   <path d="M196.3294,90.0000L196.3294,109.1629L199.3294,109.1629L199.3294,90.0000z"/>
   <path d="M200.1411,90.0000L200.1411,137.9073L203.1411,137.9073L203.1411,90.0000z"/>
   <path d="M203.9528,90.0000L203.9528,171.4424L206.9528,171.4424L206.9528,90.0000z"/>
   <path d="M207.7645,90.0000L207.7645,152.2795L210.7645,152.2795L210.7645,90.0000z"/>
   <path d="M211.5762,90.0000L211.5762,233.7219L214.5762,233.7219L214.5762,90.0000z"/>
   <path d="M215.3880,90.0000L215.3880,204.9775L218.3880,204.9775L218.3880,90.0000z"/>
   <path d="M219.1997,90.0000L219.1997,147.4888L222.1997,147.4888L222.1997,90.0000z"/>
   <path d="M223.0114,90.0000L223.0114,204.9775L226.0114,204.9775L226.0114,90.0000z"/>
   <path d="M226.8231,90.0000L226.8231,195.3960L229.8231,195.3960L229.8231,90.0000z"/>
   <path d="M230.6348,90.0000L230.6348,233.7219L233.6348,233.7219L233.6348,90.0000z"/>
   <path d="M234.4465,90.0000L234.4465,200.1868L237.4465,200.1868L237.4465,90.0000z"/>
   <path d="M238.2582,90.0000L238.2582,209.7682L241.2582,209.7682L241.2582,90.0000z"/>
   <path d="M242.0699,90.0000L242.0699,219.3497L245.0699,219.3497L245.0699,90.0000z"/>
   <path d="M245.8816,90.0000L245.8816,209.7682L248.8816,209.7682L248.8816,90.0000z"/>
   <path d="M249.6933,90.0000L249.6933,224.1404L252.6933,224.1404L252.6933,90.0000z"/>
   <path d="M253.5051,90.0000L253.5051,243.3033L256.5051,243.3033L256.5051,90.0000z"/>
   <path d="M257.3168,90.0000L257.3168,228.9311L260.3168,228.9311L260.3168,90.0000z"/>
   <path d="M261.1285,90.0000L261.1285,233.7219L264.1285,233.7219L264.1285,90.0000z"/>
   <path d="M264.9402,90.0000L264.9402,200.1868L267.9402,200.1868L267.9402,90.0000z"/>
   <path d="M268.7519,90.0000L268.7519,200.1868L271.7519,200.1868L271.7519,90.0000z"/>
   <path d="M272.5636,90.0000L272.5636,190.6053L275.5636,190.6053L275.5636,90.0000z"/>
   <path d="M276.3753,90.0000L276.3753,233.7219L279.3753,233.7219L279.3753,90.0000z"/>
   <path d="M280.1870,90.0000L280.1870,238.5126L283.1870,238.5126L283.1870,90.0000z"/>
   <path d="M283.9987,90.0000L283.9987,228.9311L286.9987,228.9311L286.9987,90.0000z"/>
   <path d="M287.8104,90.0000L287.8104,257.6755L290.8104,257.6755L290.8104,90.0000z"/>
   <path d="M291.6221,90.0000L291.6221,209.7682L294.6221,209.7682L294.6221,90.0000z"/>
   <path d="M295.4339,90.0000L295.4339,214.5590L298.4339,214.5590L298.4339,90.0000z"/>
   <path d="M299.2456,90.0000L299.2456,214.5590L302.2456,214.5590L302.2456,90.0000z"/>
   <path d="M303.0573,90.0000L303.0573,204.9775L306.0573,204.9775L306.0573,90.0000z"/>
   <path d="M306.8690,90.0000L306.8690,161.8609L309.8690,161.8609L309.8690,90.0000z"/>
   <path d="M310.6807,90.0000L310.6807,181.0239L313.6807,181.0239L313.6807,90.0000z"/>
   <path d="M314.4924,90.0000L314.4924,171.4424L317.4924,171.4424L317.4924,90.0000z"/>
   <path d="M318.3041,90.0000L318.3041,161.8609L321.3041,161.8609L321.3041,90.0000z"/>
   <path d="M322.1158,90.0000L322.1158,171.4424L325.1158,171.4424L325.1158,90.0000z"/>
   <path d="M325.9275,90.0000L325.9275,171.4424L328.9275,171.4424L328.9275,90.0000z"/>
   <path d="M329.7392,90.0000L329.7392,118.7444L332.7392,118.7444L332.7392,90.0000z"/>
   <path d="M333.5510,90.0000L333.5510,147.4888L336.5510,147.4888L336.5510,90.0000z"/>
   <path d="M337.3627,90.0000L337.3627,137.9073L340.3627,137.9073L340.3627,90.0000z"/>
   <path d="M341.1744,90.0000L341.1744,137.9073L344.1744,137.9073L344.1744,90.0000z"/>
   <path d="M344.9861,90.0000L344.9861,137.9073L347.9861,137.9073L347.9861,90.0000z"/>
   <path d="M348.7978,90.0000L348.7978,137.9073L351.7978,137.9073L351.7978,90.0000z"/>
   <path d="M352.6095,90.0000L352.6095,142.6980L355.6095,142.6980L355.6095,90.0000z"/>
   <path d="M356.4212,90.0000L356.4212,133.1166L359.4212,133.1166L359.4212,90.0000z"/>
   <path d="M360.2329,90.0000L360.2329,118.7444L363.2329,118.7444L363.2329,90.0000z"/>
   <path d="M364.0446,90.0000L364.0446,109.1629L367.0446,109.1629L367.0446,90.0000z"/>
   <path d="M367.8563,90.0000L367.8563,128.3258L370.8563,128.3258L370.8563,90.0000z"/>
   <path d="M371.6681,90.0000L371.6681,104.3722L374.6681,104.3722L374.6681,90.0000z"/>
   <path d="M375.4798,90.0000L375.4798,104.3722L378.4798,104.3722L378.4798,90.0000z"/>
   <path d="M379.2915,90.0000L379.2915,99.5815L382.2915,99.5815L382.2915,90.0000z"/>
   <path d="M383.1032,90.0000L383.1032,99.5815L386.1032,99.5815L386.1032,90.0000z"/>
   <path d="M386.9149,90.0000L386.9149,90.0000L389.9149,90.0000L389.9149,90.0000z"/>
   <path d="M390.7266,90.0000L390.7266,99.5815L393.7266,99.5815L393.7266,90.0000z"/>
   <path d="M394.5383,90.0000L394.5383,104.3722L397.5383,104.3722L397.5383,90.0000z"/>
   <path d="M398.3500,90.0000L398.3500,94.7907L401.3500,94.7907L401.3500,90.0000z"/>
   <path d="M402.1617,90.0000L402.1617,94.7907L405.1617,94.7907L405.1617,90.0000z"/>
   <path d="M405.9734,90.0000L405.9734,94.7907L408.9734,94.7907L408.9734,90.0000z"/>
   <path d="M409.7852,90.0000L409.7852,109.1629L412.7852,109.1629L412.7852,90.0000z"/>
   <path d="M413.5969,90.0000L413.5969,94.7907L416.5969,94.7907L416.5969,90.0000z"/>
   <path d="M417.4086,90.0000L417.4086,94.7907L420.4086,94.7907L420.4086,90.0000z"/>
   <path d="M421.2203,90.0000L421.2203,99.5815L424.2203,99.5815L424.2203,90.0000z"/>
   <path d="M425.0320,90.0000L425.0320,94.7907L428.0320,94.7907L428.0320,90.0000z"/>
   <path d="M428.8437,90.0000L428.8437,99.5815L431.8437,99.5815L431.8437,90.0000z"/>
   <path d="M432.6554,90.0000L432.6554,94.7907L435.6554,94.7907L435.6554,90.0000z"/>
   <path d="M436.4671,90.0000L436.4671,94.7907L439.4671,94.7907L439.4671,90.0000z"/>
   <path d="M440.2788,90.0000L440.2788,94.7907L443.2788,94.7907L443.2788,90.0000z"/>
   <path d="M444.0905,90.0000L444.0905,90.0000L447.0905,90.0000L447.0905,90.0000z"/>
   <path d="M447.9023,90.0000L447.9023,99.5815L450.9023,99.5815L450.9023,90.0000z"/>
   <path d="M451.7140,90.0000L451.7140,94.7907L454.7140,94.7907L454.7140,90.0000z"/>
   <path d="M455.5257,90.0000L455.5257,94.7907L458.5257,94.7907L458.5257,90.0000z"/>
   <path d="M459.3374,90.0000L459.3374,90.0000L462.3374,90.0000L462.3374,90.0000z"/>
   <path d="M463.1491,90.0000L463.1491,90.0000L466.1491,90.0000L466.1491,90.0000z"/>
   <path d="M466.9608,90.0000L466.9608,90.0000L469.9608,90.0000L469.9608,90.0000z"/>
   <path d="M470.7725,90.0000L470.7725,90.0000L473.7725,90.0000L473.7725,90.0000z"/>
   <path d="M474.5842,90.0000L474.5842,94.7907L477.5842,94.7907L477.5842,90.0000z"/>
   <path d="M90.0000,90.0000L690.0000,90.0000"/>
   <path d="M90.0000,300.0000L690.0000,300.0000"/>
   <path d="M103.0435,90.0000L103.0435,96.0000"/>
   <path d="M103.0435,300.0000L103.0435,294.0000"/>
   <path d="M233.4783,90.0000L233.4783,96.0000"/>
   <path d="M233.4783,300.0000L233.4783,294.0000"/>
   <path d="M363.9130,90.0000L363.9130,96.0000"/>
   <path d="M363.9130,300.0000L363.9130,294.0000"/>
   <path d="M494.3478,90.0000L494.3478,96.0000"/>
   <path d="M494.3478,300.0000L494.3478,294.0000"/>
   <path d="M624.7826,90.0000L624.7826,96.0000"/>
   <path d="M624.7826,300.0000L624.7826,294.0000"/>
   <path d="M168.2609,90.0000L168.2609,102.0000"/>
   <path d="M168.2609,300.0000L168.2609,288.0000"/>
   <path d="M298.6957,90.0000L298.6957,102.0000"/>
   <path d="M298.6957,300.0000L298.6957,288.0000"/>
   <path d="M429.1304,90.0000L429.1304,102.0000"/>
   <path d="M429.1304,300.0000L429.1304,288.0000"/>
   <path d="M559.5652,90.0000L559.5652,102.0000"/>
   <path d="M559.5652,300.0000L559.5652,288.0000"/>
   <path d="M690.0000,90.0000L690.0000,102.0000"/>
   <path d="M690.0000,300.0000L690.0000,288.0000"/>
  </g>
  <g style="fill:#000000; fill-rule:nonzero">
   <text   style="font-family:'Times','Nimbus Roman No9 L'; font-style:normal; font-weight:normal; font-size:600.0000" transform="matrix(0.0280,0.0000,-0.0000,-0.0280,164.7609,73.0000)">8</text>
   <text   style="font-family:'Times','Nimbus Roman No9 L'; font-style:normal; font-weight:normal; font-size:600.0000" transform="matrix(0.0280,0.0000,-0.0000,-0.0280,288.6957,72.0000)">8.5</text>
   <text   style="font-family:'Times','Nimbus Roman No9 L'; font-style:normal; font-weight:normal; font-size:600.0000" transform="matrix(0.0280,0.0000,-0.0000,-0.0280,425.1304,73.0000)">9</text>
   <text   style="font-family:'Times','Nimbus Roman No9 L'; font-style:normal; font-weight:normal; font-size:600.0000" transform="matrix(0.0280,0.0000,-0.0000,-0.0280,549.5652,72.0000)">9.5</text>
   <text   style="font-family:'Times','Nimbus Roman No9 L'; font-style:normal; font-weight:normal; font-size:600.0000" transform="matrix(0.0280,0.0000,-0.0000,-0.0280,682.0000,73.0000)">10</text>
   <text   style="font-family:'Times','Nimbus Roman No9 L'; font-style:normal; font-weight:normal; font-size:600.0000" transform="matrix(0.0280,0.0000,-0.0000,-0.0280,377.0000,55.0000)">loss</text>
  </g>
  <g style="fill:none; stroke:#000000; stroke-width:  0.9000; stroke-linecap:butt; stroke-linejoin:miter; stroke-dasharray:none">
   <path d="M90.0000,90.0000L90.0000,300.0000"/>
   <path d="M690.0000,90.0000L690.0000,300.0000"/>
   <path d="M90.0000,90.0000L102.0000,90.0000"/>
   <path d="M690.0000,90.0000L678.0000,90.0000"/>
  </g>
  <g style="fill:#000000; fill-rule:nonzero">
   <text   style="font-family:'Times','Nimbus Roman No9 L'; font-style:normal; font-weight:normal; font-size:600.0000" transform="matrix(0.0280,0.0000,-0.0000,-0.0280,76.0000,84.5000)">0</text>
   <text   style="font-family:'Times','Nimbus Roman No9 L'; font-style:normal; font-weight:normal; font-size:600.0000" transform="matrix(0.0000,0.0280,0.0280,-0.0000,70.0000,163.0000)">incidence</text>
  </g>
  <g style="fill:none; stroke:#000000; stroke-width:  0.9000; stroke-linecap:butt; stroke-linejoin:miter; stroke-dasharray:none">
   <path d="M90.0000,90.0000L90.0000,300.0000L690.0000,300.0000L690.0000,90.0000z"/>
  </g>
  <g style="fill:#FFFFFF; fill-rule:nonzero">
   <path  d="M510.0000,285.0000L510.0000,259.0000L668.5000,259.0000L668.5000,285.0000z"/>
  </g>
  <g style="fill:#000000; fill-rule:nonzero">
   <text   style="font-family:'Times','Nimbus Roman No9 L'; font-style:normal; font-weight:normal; font-size:600.0000" transform="matrix(0.0280,0.0000,-0.0000,-0.0280,547.5000,268.0000)">dtheta=2 (native)</text>
   <path  d="M526.5000,266.0000L526.5000,278.0000L529.5000,278.0000L529.5000,266.0000z"/>
  </g>
  <g style="fill:none; stroke:#000000; stroke-width:  0.9000; stroke-linecap:butt; stroke-linejoin:miter; stroke-dasharray:none">
   <path d="M526.5000,266.0000L526.5000,278.0000L529.5000,278.0000L529.5000,266.0000z"/>
  </g>
 </g>
</svg>
